#N canvas 0 50 1000 600 10;
#X msg 25 25 bang;
#X msg 75 25 500;
#X obj 75 50 t b f;
#X obj 75 75 delay;
#X obj 25 125 f;
#X floatatom 75 125 5 0 0 - - -;
#X obj 25 150 +;
#X floatatom 25 175 5 0 0 - - -;
#X connect 1 0 2 0;
#X connect 2 0 3 0;
#X connect 2 1 3 1;
#X connect 0 0 4 0;
#X connect 3 0 4 0;
#X connect 4 0 6 0;
#X connect 5 0 6 1;
#X connect 6 0 4 1;
#X connect 6 0 7 0;